<svg version="1.0" xmlns="http://www.w3.org/2000/svg"
 width="168.000000pt" height="58.000000pt" viewBox="0 0 168.000000 58.000000"
 preserveAspectRatio="xMidYMid meet">

<g transform="translate(0.000000,58.000000) scale(0.100000,-0.100000)"
fill="#000000" stroke="none">
<path d="M697 457 c-26 -19 -37 -63 -37 -144 0 -86 -15 -145 -42 -170 -27 -24
-39 -6 -45 71 -8 91 -39 76 -42 -20 -1 -44 -61 -92 -61 -49 0 8 -3 15 -7 15
-5 0 -8 11 -8 25 0 14 3 25 8 25 12 0 8 48 -5 57 -13 8 -74 31 -93 36 -5 1
-11 -11 -13 -28 -5 -54 -32 -133 -46 -138 -8 -3 -23 2 -33 10 -20 16 -20 17 3
82 40 113 27 231 -25 231 -36 0 -56 -38 -58 -109 -1 -36 -2 -69 -3 -73 0 -3
-9 -4 -19 -1 -28 7 -68 -24 -81 -62 -9 -28 -8 -41 5 -70 10 -19 21 -36 26 -36
20 -3 25 -5 37 -12 8 -5 29 0 52 12 25 13 42 17 46 10 3 -6 13 -8 21 -5 8 3
11 2 8 -3 -11 -18 13 -20 32 -3 26 23 50 69 58 115 6 28 11 37 22 33 8 -3 19
-6 24 -6 5 0 9 -22 9 -50 0 -66 16 -100 48 -100 14 0 34 7 44 17 17 15 19 15
36 0 32 -29 66 -21 89 19 l20 36 21 -36 c18 -30 27 -36 56 -36 37 0 70 26 82
64 11 36 54 51 54 20 0 -9 9 -32 21 -50 18 -29 26 -34 59 -34 36 0 41 4 66 45
14 25 30 45 35 45 5 0 12 0 16 0 4 0 8 -7 9 -15 4 -28 34 -66 60 -75 38 -15
69 3 92 54 16 32 26 44 37 40 8 -4 15 -12 15 -20 0 -17 48 -68 73 -77 10 -4
32 0 48 8 21 12 34 13 48 5 28 -14 92 -12 121 5 14 8 21 14 17 15 -4 0 3 10
17 23 20 17 24 26 16 37 -9 13 -11 13 -19 0 -26 -43 -51 -61 -90 -64 -34 -3
-41 0 -41 14 0 10 7 20 15 24 8 3 22 21 32 40 15 32 15 36 -1 60 -21 33 -59
34 -91 1 -20 -20 -25 -34 -25 -78 0 -61 -12 -73 -51 -53 -33 16 -47 60 -29 89
31 50 41 78 47 140 5 57 3 66 -17 85 -51 48 -93 -21 -89 -147 3 -89 -5 -102
-42 -62 -15 17 -33 31 -38 31 -19 0 -12 -46 9 -65 25 -23 25 -28 -4 -61 -23
-27 -24 -28 -50 -11 -21 14 -26 25 -26 60 0 23 9 65 19 92 41 107 37 175 -10
175 -33 0 -51 -44 -57 -142 -7 -88 -8 -93 -30 -94 -12 -1 -21 1 -18 3 9 9 -32
45 -43 38 -16 -9 -13 -29 8 -57 11 -13 19 -33 17 -43 -3 -24 -34 -45 -54 -38
-46 16 -55 81 -21 157 29 67 36 147 14 169 -21 21 -28 21 -48 -1 -20 -21 -37
-104 -37 -173 0 -58 -16 -72 -42 -36 -21 29 -43 35 -51 15 -5 -15 11 -50 27
-60 20 -13 -7 -63 -36 -66 -55 -6 -75 70 -38 146 11 23 23 68 26 99 5 49 3 61
-13 75 -16 15 -22 16 -36 5z m652 -84 c-6 -68 -25 -123 -41 -123 -5 0 -8 37
-6 82 3 83 6 90 53 108 1 0 -2 -30 -6 -67z m-1081 -15 c2 -40 -3 -79 -11 -100
l-14 -33 -11 40 c-15 50 -15 105 -2 140 17 46 35 24 38 -47z m449 18 c-3 -30
-11 -65 -19 -78 -13 -23 -13 -22 -16 14 -4 45 15 118 30 118 7 0 9 -18 5 -54z
m211 7 c-3 -27 -12 -61 -19 -78 l-13 -30 -4 40 c-4 46 14 115 30 115 7 0 9
-17 6 -47z m203 -30 c-16 -81 -31 -91 -31 -19 0 64 15 105 32 88 8 -8 8 -28
-1 -69z m369 -120 c0 -29 -25 -63 -47 -63 -17 0 -18 61 -1 78 22 22 48 14 48
-15z m-1287 -24 c13 -33 14 -45 4 -60 -23 -38 -84 -37 -94 1 -3 11 -9 20 -14
20 -10 0 6 48 23 67 6 7 23 13 38 13 22 0 30 -7 43 -41z"/>
<path d="M540 365 c-11 -13 -11 -19 2 -32 17 -16 38 -10 38 11 0 8 -6 19 -14
25 -10 9 -16 8 -26 -4z"/>
</g>
</svg>
